<?xml version="1.0" standalone="no"?>
<!DOCTYPE svg PUBLIC "-//W3C//DTD SVG 20010904//EN"
 "http://www.w3.org/TR/2001/REC-SVG-20010904/DTD/svg10.dtd">
<svg version="1.0" xmlns="http://www.w3.org/2000/svg"
 width="1596.000000pt" height="1596.000000pt" viewBox="0 0 1596.000000 1596.000000"
 preserveAspectRatio="xMidYMid meet">
<metadata>
Created by potrace 1.11, written by Peter Selinger 2001-2013
</metadata>
<g transform="translate(0.000000,1596.000000) scale(0.100000,-0.100000)"
fill="#000000" stroke="none">
<path d="M7 10145 c-2 -5 -3 -984 -3 -2175 l1 -2165 1555 0 1555 0 0 768 c0
423 -3 770 -6 772 -3 2 -351 -342 -774 -766 -424 -423 -770 -769 -771 -769 0
0 0 972 0 2161 1 1188 -2 2166 -6 2172 -10 16 -1546 17 -1551 2z"/>
<path d="M3944 10151 c-2 -2 -4 -982 -4 -2176 l0 -2172 778 1 777 1 0 2173 c0
1442 -3 2172 -10 2173 -29 4 -1537 3 -1541 0z"/>
<path d="M6324 10145 c-2 -5 -3 -984 -2 -2175 l3 -2165 776 -1 776 -1 0 2159
c0 1187 2 2161 5 2164 3 2 54 -78 114 -178 59 -101 154 -259 209 -353 164
-274 509 -855 628 -1055 60 -102 118 -197 128 -212 10 -15 19 -29 19 -32 0 -3
25 -47 56 -98 31 -51 65 -106 74 -123 10 -16 79 -133 155 -260 76 -126 145
-243 155 -260 19 -33 227 -382 425 -715 71 -118 136 -228 144 -243 9 -16 21
-36 26 -45 6 -9 61 -102 124 -207 63 -104 119 -199 125 -210 31 -56 189 -316
194 -319 4 -2 7 972 7 2165 0 1193 -2 2170 -5 2170 -3 1 -934 2 -2069 3 -1369
1 -2065 -2 -2067 -9z"/>
<path d="M11290 9375 l0 -780 775 775 c638 638 775 771 776 750 0 -14 1 -990
2 -2170 l2 -2145 777 -1 778 -1 2 2170 3 2170 773 -773 c736 -737 772 -771
772 -739 1 56 1 1472 1 1499 l-1 25 -2330 0 -2330 0 0 -780z"/>
</g>
</svg>
