<svg xmlns="http://www.w3.org/2000/svg" width="32" height="32" viewBox="0 0 32 32">
    <g fill="none" fill-rule="evenodd">
        <path fill="#000" d="M0 0H32V32H0z"/>
        <path fill="#FFF" d="M12.726 24c6.66 0 10.302-5.77 10.302-10.774 0-.164-.003-.327-.01-.49.706-.534 1.32-1.2 1.806-1.96-.65.301-1.347.504-2.08.596.748-.469 1.322-1.21 1.592-2.095-.7.434-1.474.75-2.299.92C21.377 9.46 20.436 9 19.395 9c-2 0-3.621 1.696-3.621 3.786 0 .298.031.587.094.864-3.01-.158-5.678-1.665-7.463-3.956-.311.559-.49 1.21-.49 1.903 0 1.314.639 2.473 1.61 3.152-.593-.02-1.151-.19-1.64-.474v.048c0 1.834 1.248 3.365 2.905 3.713-.304.086-.624.133-.955.133-.233 0-.46-.024-.68-.068.46 1.504 1.797 2.599 3.382 2.63-1.24 1.015-2.8 1.62-4.497 1.62-.292 0-.58-.017-.864-.052C8.78 23.373 10.681 24 12.726 24"/>
    </g>
</svg>
