<svg xmlns="http://www.w3.org/2000/svg" width="32" height="32" viewBox="0 0 32 32">
    <g fill="none" fill-rule="evenodd">
        <path fill="#000" d="M0 0H32V32H0z"/>
        <path fill="#FFF" d="M14.673 20.007c.395.746 1.55 1.377 2.778 1.377 3.656 0 6.29-3.326 6.29-7.459C23.74 9.965 20.473 7 16.268 7c-5.23 0-8.009 3.474-8.009 7.256 0 1.759.947 3.949 2.46 4.646.23.105.353.059.406-.16.04-.167.245-.982.337-1.36.03-.122.015-.226-.084-.345-.501-.6-.902-1.705-.902-2.736 0-2.645 2.024-5.204 5.473-5.204 2.977 0 5.063 2.008 5.063 4.879 0 3.243-1.656 5.49-3.81 5.49-1.19 0-2.081-.973-1.796-2.166.342-1.426 1.004-2.964 1.004-3.993 0-.92-.5-1.689-1.533-1.689-1.217 0-2.194 1.245-2.194 2.912 0 1.062.363 1.78.363 1.78s-1.201 5.025-1.421 5.961c-.244 1.035-.148 2.493-.042 3.442.271.105.548.2.829.287.494-.797 1.232-2.101 1.506-3.143.147-.56.755-2.85.755-2.85"/>
    </g>
</svg>
