<svg xmlns="http://www.w3.org/2000/svg" width="32" height="32" viewBox="0 0 32 32">
    <g fill="none" fill-rule="evenodd">
        <path fill="#000" d="M0 0H32V32H0z"/>
        <path fill="#FFF" d="M18.841 12.47c0 .543.44.983.984.983.543 0 .983-.44.983-.983 0-.543-.44-.984-.983-.984-.543 0-.984.44-.984.984zM12.534 16.326c0-1.46 1.188-2.646 2.647-2.646 1.46 0 2.646 1.187 2.646 2.646 0 1.459-1.187 2.646-2.646 2.646-1.46 0-2.647-1.187-2.647-2.646zm-1.484 0c0 2.278 1.853 4.13 4.13 4.13 2.278 0 4.132-1.852 4.132-4.13 0-2.278-1.854-4.131-4.131-4.131-2.278 0-4.131 1.853-4.131 4.13z"/>
        <path fill="#FFF" d="M12.039 9.578c-1.908 0-3.46 1.552-3.46 3.46v6.698c0 1.908 1.552 3.46 3.46 3.46h6.697c1.908 0 3.46-1.552 3.46-3.46v-6.698c0-1.908-1.552-3.46-3.46-3.46h-6.697zm0 15.196C9.26 24.774 7 22.514 7 19.736v-6.698C7 10.26 9.26 8 12.039 8h6.697c2.778 0 5.038 2.26 5.038 5.038v6.698c0 2.778-2.26 5.038-5.038 5.038h-6.697z"/>
    </g>
</svg>
