<svg xmlns="http://www.w3.org/2000/svg" width="32" height="32" viewBox="0 0 32 32">
    <g fill="none" fill-rule="evenodd">
        <path fill="#000" d="M0 0H32V32H0z"/>
        <path fill="#FFF" d="M14.542 16.567v8.219c0 .118.085.214.19.214h2.705c.105 0 .19-.096.19-.214v-8.353h1.961c.099 0 .181-.085.19-.196l.188-2.517c.01-.125-.078-.232-.19-.232h-2.149v-1.785c0-.42.3-.758.671-.758h1.512c.105 0 .19-.096.19-.214V8.214c0-.118-.085-.214-.19-.214h-2.554c-1.499 0-2.714 1.37-2.714 3.062v2.426H13.19c-.105 0-.19.096-.19.214v2.517c0 .118.085.214.19.214h1.352v.134z"/>
    </g>
</svg>
